<svg width="384" height="373" viewBox="0 0 384 373" fill="none" xmlns="http://www.w3.org/2000/svg">
<path d="M0 80.8301C0 43.1177 0 24.2615 11.7157 12.5458C23.4315 0.830048 42.2876 0.830048 80 0.830048H303.721C341.434 0.830048 360.29 0.830048 372.005 12.5458C383.721 24.2615 383.721 43.1177 383.721 80.83V292.452C383.721 330.164 383.721 349.021 372.005 360.736C360.29 372.452 341.434 372.452 303.721 372.452H80.0001C42.2877 372.452 23.4315 372.452 11.7157 360.736C0 349.021 0 330.164 0 292.452V80.8301Z" fill="url(#paint0_linear_21_63)"/>
<defs>
<linearGradient id="paint0_linear_21_63" x1="191.861" y1="0.830048" x2="191.861" y2="372.452" gradientUnits="userSpaceOnUse">
<stop stop-color="#DCEDC1"/>
<stop offset="1" stop-color="#84E3C8"/>
</linearGradient>
</defs>
</svg>
