<svg width="385" height="373" viewBox="0 0 385 373" fill="none" xmlns="http://www.w3.org/2000/svg">
<path d="M0 80.3773C0 42.6649 0 23.8087 11.7157 12.093C23.4315 0.377258 42.2876 0.377258 80 0.377258H304.173C341.885 0.377258 360.741 0.377258 372.457 12.093C384.173 23.8087 384.173 42.6649 384.173 80.3773V292.437C384.173 330.149 384.173 349.005 372.457 360.721C360.741 372.437 341.885 372.437 304.173 372.437H80C42.2876 372.437 23.4315 372.437 11.7157 360.721C0 349.005 0 330.149 0 292.437V80.3773Z" fill="url(#paint0_linear_21_93)"/>
<defs>
<linearGradient id="paint0_linear_21_93" x1="-101.611" y1="10.5359" x2="-101.611" y2="382.596" gradientUnits="userSpaceOnUse">
<stop stop-color="#A8E1DF"/>
<stop offset="1" stop-color="#FFBDD4"/>
</linearGradient>
</defs>
</svg>
